<mxfile host="app.diagrams.net" modified="2022-08-11T04:14:03.247Z" agent="5.0 (Windows NT 10.0; Win64; x64) AppleWebKit/537.36 (KHTML, like Gecko) Chrome/104.0.0.0 Safari/537.36" etag="d5QaswVW5C_8sL59J_eu" version="14.7.2" type="github">
  <diagram id="sTl9bi6yhetV0yFUT17J" name="Page-1">
    <mxGraphModel dx="1038" dy="547" grid="1" gridSize="10" guides="1" tooltips="1" connect="1" arrows="1" fold="1" page="1" pageScale="1" pageWidth="827" pageHeight="1169" math="0" shadow="0">
      <root>
        <mxCell id="0" />
        <mxCell id="1" parent="0" />
        <mxCell id="MXhHU8DbnIN5sgEQN85g-6" style="edgeStyle=orthogonalEdgeStyle;rounded=0;orthogonalLoop=1;jettySize=auto;html=1;exitX=1;exitY=0.3333333333333333;exitDx=0;exitDy=0;exitPerimeter=0;entryX=0;entryY=0.75;entryDx=0;entryDy=0;" edge="1" parent="1" source="MXhHU8DbnIN5sgEQN85g-1" target="MXhHU8DbnIN5sgEQN85g-4">
          <mxGeometry relative="1" as="geometry" />
        </mxCell>
        <mxCell id="MXhHU8DbnIN5sgEQN85g-7" style="edgeStyle=orthogonalEdgeStyle;rounded=0;orthogonalLoop=1;jettySize=auto;html=1;exitX=1;exitY=0.3333333333333333;exitDx=0;exitDy=0;exitPerimeter=0;entryX=0;entryY=0.25;entryDx=0;entryDy=0;" edge="1" parent="1" source="MXhHU8DbnIN5sgEQN85g-1" target="MXhHU8DbnIN5sgEQN85g-5">
          <mxGeometry relative="1" as="geometry" />
        </mxCell>
        <mxCell id="MXhHU8DbnIN5sgEQN85g-1" value="用户A" style="shape=umlActor;verticalLabelPosition=bottom;verticalAlign=top;html=1;outlineConnect=0;" vertex="1" parent="1">
          <mxGeometry x="60" y="210" width="30" height="60" as="geometry" />
        </mxCell>
        <mxCell id="MXhHU8DbnIN5sgEQN85g-4" value="神经内科主任" style="rounded=0;whiteSpace=wrap;html=1;" vertex="1" parent="1">
          <mxGeometry x="140" y="170" width="120" height="40" as="geometry" />
        </mxCell>
        <mxCell id="MXhHU8DbnIN5sgEQN85g-5" value="NCU医生" style="rounded=0;whiteSpace=wrap;html=1;" vertex="1" parent="1">
          <mxGeometry x="140" y="260" width="120" height="40" as="geometry" />
        </mxCell>
      </root>
    </mxGraphModel>
  </diagram>
</mxfile>
